# xmcd CD Database Entry
#
# Track frame offsets:
# 150
# 17285
# 35085
# 51407
# 60405
# 72530
# 86932
# 101807
# 112470
# 127392
# 143710
# 159190
# 168112
# 180635
#
# Disc length: 2596 seconds
#
# Revision: 1
# Processed by: cddbd v1.4PL0 Copyright (c) Steve Scherf et al.
# Submitted via: tcd 2.0b
#
DISCID=cc0a220e
DTITLE=O Bem do Mar - Various
DYEAR=1900
DGENRE=
TTITLE0=Amor, Amor
TTITLE1=Saudade de Itapoa
TTITLE2=Itapua
TTITLE3=Pescaria
TTITLE4=Brisa do Mar
TTITLE5=Sorri pra Bahia
TTITLE6=Ela Vai pro Mar
TTITLE7=Garota de Ipanema
TTITLE8=A Mulher de Cada Porto
TTITLE9=Morena dos Olhos d'Agua
TTITLE10=Timoneiro
TTITLE11=Mar e Lua
TTITLE12=Fotografia
TTITLE13=O Bem do Mar
EXTD=
EXTT0=
EXTT1=
EXTT2=
EXTT3=
EXTT4=
EXTT5=
EXTT6=
EXTT7=
EXTT8=
EXTT9=
EXTT10=
EXTT11=
EXTT12=
EXTT13=
PLAYORDER=
